PathFileType	4	(X/Y/Z)	E:\Qualisys_Data\Carbon_Farble_Plate\Data\Amateur_Runner\S1\T2\S1T2V23_c3d.trc
DataRate	CameraRate	NumFrames	NumMarkers	Units	OrigDataRate	OrigDataStartFrame	OrigNumFrames
200.000000	200.000000	4	39	mm	200.000000	187	300
Frame#	Time	LSHO			RSHO			LICST			RICST			LASIS			LHEEL			RASIS			LTROC			RTROC			SACR			LTH1			LSK4			LTH2			LTH3			RHM5			LSK2			LTH4			RTH1			LTOE			RTH2			RTH3			RTH4			LLEP			RLEP			LSK1			LSK3			RSK1			LHM5			RSK2			LFT1			RSK3			RSK4			LLME			RLME			RTOE			RHEEL			RFT1			RFT2			LFT2			
		X1	Y1	Z1	X2	Y2	Z2	X3	Y3	Z3	X4	Y4	Z4	X5	Y5	Z5	X6	Y6	Z6	X7	Y7	Z7	X8	Y8	Z8	X9	Y9	Z9	X10	Y10	Z10	X11	Y11	Z11	X12	Y12	Z12	X13	Y13	Z13	X14	Y14	Z14	X15	Y15	Z15	X16	Y16	Z16	X17	Y17	Z17	X18	Y18	Z18	X19	Y19	Z19	X20	Y20	Z20	X21	Y21	Z21	X22	Y22	Z22	X23	Y23	Z23	X24	Y24	Z24	X25	Y25	Z25	X26	Y26	Z26	X27	Y27	Z27	X28	Y28	Z28	X29	Y29	Z29	X30	Y30	Z30	X31	Y31	Z31	X32	Y32	Z32	X33	Y33	Z33	X34	Y34	Z34	X35	Y35	Z35	X36	Y36	Z36	X37	Y37	Z37	X38	Y38	Z38	X39	Y39	Z39	

188	0.935	672.0680541992188	1499.578002929688	-532.9224243164062	698.423583984375	1468.76123046875	-205.3130645751953	649.6671142578125	1018.454162597656	-511.8296203613281	646.6279296875	1035.912719726562	-212.7194213867188	690.1487426757812	980.2081909179688	-485.2952270507812	508.0324401855469	332.7137145996094	-412.9190368652344	682.8306274414062	985.4938354492188	-219.9912719726562	603.2642822265625	896.2188720703125	-533.3997192382812	563.2086181640625	904.5425415039062	-196.051025390625	527.1376953125	1041.701293945312	-363.0158996582031	791.3543701171875	832.53271484375	-499.4588623046875	629.757080078125	438.4802856445312	-449.07421875	734.0023193359375	778.49755859375	-533.7699584960938	857.0288696289062	752.0213012695312	-490.4420776367188	434.5408935546875	54.93159103393555	-233.7697448730469	707.6356201171875	498.0672607421875	-484.4720458984375	794.0064086914062	699.2015991210938	-515.040771484375	678.1337280273438	761.2125854492188	-211.8526153564453	691.3790283203125	157.0707092285156	-421.7002868652344	601.6876220703125	767.668212890625	-187.1328430175781	665.6581420898438	660.1812744140625	-220.8457794189453	586.5220947265625	670.2494506835938	-204.0293731689453	892.1549072265625	591.3872680664062	-478.3027954101562	588.7190551757812	497.0182189941406	-245.4229278564453	757.5143432617188	431.4159851074219	-476.9958801269531	673.9560546875	374.4056396484375	-471.7850646972656	492.1784973144531	331.957275390625	-234.5863952636719	618.1864624023438	176.3804626464844	-485.7396545410156	424.3460693359375	375.2174987792969	-242.1782989501953	498.9162902832031	306.6003112792969	-385.165771484375	440.9002685546875	246.6297149658203	-247.5191192626953	374.7270812988281	290.6131591796875	-266.1094970703125	564.9143676757812	318.3114929199219	-465.3107299804688	344.3049926757812	155.8693695068359	-248.75244140625	497.7291259765625	53.80564498901367	-310.8732604980469	261.9075012207031	139.1855621337891	-289.3110046386719	265.3869323730469	106.6495819091797	-321.3441772460938	257.227294921875	111.4765014648438	-263.6275024414062	489.0169372558594	304.9570922851562	-440.3808898925781
189	0.94	689.7117919921875	1502.892578125	-533.8990478515625	720.7255249023438	1473.4150390625	-206.880615234375	671.315185546875	1023.1416015625	-511.4881286621094	668.6610717773438	1038.832763671875	-212.6860504150391	716.1431274414062	986.6969604492188	-483.3030700683594	542.3630981445312	320.3034973144531	-412.7613220214844	704.5389404296875	988.2984619140624	-219.9523162841797	625.59228515625	901.1668701171876	-534.0444946289062	584.3396606445312	908.2362060546876	-196.6940765380859	549.5748291015625	1046.158447265625	-362.0767211914062	814.0406494140625	838.5336303710938	-498.0758056640625	659.7453002929688	432.0335083007812	-448.3854675292969	757.135498046875	784.05859375	-533.4852905273438	879.8236083984375	758.0181274414062	-489.2303161621094	436.1876831054688	56.07130813598633	-234.4331207275391	734.168212890625	495.6253662109375	-483.2857666015625	817.1595458984375	705.281494140625	-514.801025390625	696.1532592773438	762.8281860351562	-214.0636749267578	734.4200439453125	153.7072601318359	-422.1481323242188	620.407958984375	771.3463134765625	-187.7261962890625	681.2667846679688	662.4994506835938	-223.3695068359375	602.8822631835938	673.8277587890625	-204.9731140136719	915.3695678710938	597.4271850585938	-477.3229064941406	599.4676513671875	501.5273742675781	-246.0475006103516	787.630126953125	431.2744140625	-476.6441650390625	706.9627685546875	370.5740661621094	-472.2077331542969	500.5135803222656	337.9198608398438	-234.3331909179688	660.5970458984375	169.8294677734375	-486.3198852539062	432.1459350585938	381.8916320800781	-242.5081939697266	534.7271728515625	294.2123107910156	-384.7921447753906	448.1172790527344	252.8153228759766	-247.3204345703125	382.9210510253906	297.3707885742188	-267.2111206054688	600.558349609375	309.12451171875	-465.5891723632812	350.7023315429688	162.3464660644531	-248.4597015380859	499.2474975585938	53.34124374389648	-310.9310607910156	266.2974243164062	146.3458404541016	-290.4081420898438	269.9774780273438	114.0475082397461	-322.3551025390625	261.5986938476562	118.3893737792969	-264.1434936523438	525.430908203125	292.3068237304688	-440.06591796875
190	0.945	707.5933227539062	1506.265258789062	-534.5777587890625	742.6962280273438	1478.552490234375	-208.2978668212891	692.7225952148438	1028.150146484375	-511.1742858886719	690.1776733398438	1042.033325195312	-213.2600402832031	739.6651000976562	991.2811889648438	-482.4737548828125	578.4570922851562	308.6719970703125	-412.5096740722656	726.2767333984375	991.0890502929688	-220.0277709960938	648.5406494140625	906.2666625976562	-534.6864624023438	605.6171875	911.839111328125	-196.5040435791016	571.2229614257812	1049.886962890625	-362.2581481933594	836.4750366210938	844.2321166992188	-497.1257934570312	689.7013549804688	425.3014831542969	-448.2002563476562	780.2064819335938	790.0645751953125	-533.0694580078125	902.6962890625	763.9112548828125	-488.0083312988281	437.6243896484375	57.26015853881836	-234.7013549804688	761.1804809570312	492.6353454589844	-482.9262390136719	840.2096557617188	710.797607421875	-514.1271362304688	714.5178833007812	765.3135375976562	-215.845703125	777.7781982421875	150.9623718261719	-423.1382446289062	638.99462890625	774.9300537109375	-188.6641998291016	697.2664184570312	665.3748168945312	-225.4911804199219	619.40869140625	678.441650390625	-205.4949798583984	938.5271606445312	602.74365234375	-476.8687438964844	610.9251708984375	506.6917724609375	-246.6580352783203	817.6067504882812	430.8381042480469	-476.923828125	740.4767456054688	365.8385314941406	-471.7893371582031	509.5363464355469	343.97900390625	-234.0824279785156	702.9856567382812	163.8564605712891	-486.8157958984375	441.6151733398438	388.6455993652344	-242.75048828125	571.831787109375	281.5107116699219	-384.4046325683594	456.3759765625	259.5669555664062	-246.3695526123047	391.57421875	304.5390930175781	-267.0712585449219	636.5048828125	300.2184143066406	-465.521728515625	357.338623046875	168.8277740478516	-247.6031494140625	500.9432067871094	52.85687255859375	-311.2788391113281	272.6510620117188	154.0128631591797	-291.0304565429688	275.1492004394531	121.9725799560547	-322.3828735351562	266.5296020507812	126.3804931640625	-264.7473449707031	561.9432373046875	279.1961059570312	-439.9989013671875
191	0.95	725.4006958007812	1510.23779296875	-535.5789184570312	764.3141479492188	1483.425659179688	-209.9064788818359	713.7144165039062	1032.593994140625	-511.7237854003906	712.5121459960938	1044.62841796875	-213.1063232421875	759.2116088867188	995.3493041992188	-483.0612182617188	614.0484008789062	296.9441833496094	-412.505615234375	748.50537109375	994.2455444335938	-220.4538726806641	671.0403442382812	911.227294921875	-535.6316528320312	626.734375	915.6221313476562	-197.3779296875	593.1534423828125	1053.983154296875	-362.2396545410156	858.91552734375	849.5142822265625	-495.9058227539062	719.8847045898438	418.4278564453125	-447.5281066894531	803.5764770507812	795.4611206054688	-532.8076782226562	925.3796997070312	769.5068359375	-486.8366394042969	439.5411071777344	58.24523544311523	-234.5404052734375	787.8869018554688	489.1396179199219	-482.3493957519531	863.1920776367188	716.2669067382812	-513.7221069335938	732.8287353515625	767.4107666015625	-217.1049346923828	820.4464111328125	148.0866088867188	-423.6397094726562	657.9627685546875	779.2130126953125	-188.6514739990234	713.6222534179688	668.6571655273438	-226.7446594238281	635.8943481445312	682.8053588867188	-205.7284393310547	960.6260375976562	607.8504028320312	-476.5093383789062	623.1753540039062	511.5804443359375	-246.8891296386719	847.2191162109375	430.0705871582031	-476.7335510253906	773.490478515625	361.5424499511719	-472.2872924804688	519.671142578125	350.0873718261719	-233.28564453125	745.9532470703125	158.0487060546875	-487.6281433105469	451.5841979980469	395.382568359375	-243.1045074462891	608.2352905273438	269.1253356933594	-384.6790161132812	465.3047790527344	265.7819213867188	-245.4763946533203	400.9552917480469	311.61572265625	-267.1473083496094	672.85888671875	290.6848754882812	-465.6378173828125	365.030517578125	176.0558624267578	-247.2309875488281	502.6183776855469	52.53696823120117	-310.7969970703125	280.2252807617188	162.9179229736328	-290.9942932128906	281.605224609375	130.8577117919922	-322.2894592285156	273.0076599121094	135.4629669189453	-264.8019104003906	599.5525512695312	266.9853820800781	-440.2288818359375
